<?xml version="1.0" encoding="utf-8"?>
<!-- Generator: Adobe Illustrator 24.0.0, SVG Export Plug-In . SVG Version: 6.00 Build 0)  -->
<svg version="1.1" id="Calque_1" xmlns="http://www.w3.org/2000/svg" xmlns:xlink="http://www.w3.org/1999/xlink" x="0px" y="0px"
	 viewBox="0 0 283.46 150.32" style="enable-background:new 0 0 283.46 150.32;" xml:space="preserve">
<style type="text/css">
	.st0{fill:#C8D100;}
	.st1{fill:#005347;}
	.st2{fill:#E75127;}
	.st3{fill:#57AA27;}
</style>
<g>
	<polygon class="st0" points="128.95,84.78 73.23,84.78 73.23,76.83 129.97,76.83 	"/>
	<polygon class="st0" points="182.46,84.78 166.91,84.78 167.93,76.83 182.46,76.83 	"/>
	<rect x="212.81" y="60.72" class="st0" width="18.43" height="7.96"/>
	<path class="st1" d="M73.44,84.78c2.28,0,4.12-1.85,4.12-4.13v-1.18V54.01h11.45c3.91,0,7.53,0.86,10.77,2.55
		c3.22,1.68,5.82,4.13,7.73,7.26c1.91,3.15,2.88,6.99,2.88,11.42c0,4.38-0.97,8.22-2.88,11.39c-1.92,3.17-4.52,5.62-7.73,7.3
		c-3.24,1.69-6.86,2.55-10.77,2.55H49.83v8.1h39.19c4.08,0,7.98-0.75,11.6-2.23c3.61-1.49,6.82-3.58,9.53-6.22
		c2.73-2.65,4.89-5.8,6.42-9.35c1.53-3.57,2.31-7.45,2.31-11.54c0-4.14-0.78-8.03-2.31-11.58c-1.53-3.53-3.69-6.66-6.42-9.31
		c-2.72-2.64-5.92-4.73-9.53-6.21c-3.61-1.48-7.52-2.23-11.6-2.23h-19.7v34.75C69.32,82.94,71.16,84.78,73.44,84.78L73.44,84.78z"/>
	<path class="st1" d="M163.66,80.72c0.56,2.52,0.33,4.75-0.68,6.81c-1.02,2.09-2.83,4.04-5.39,5.79c-2.32,1.58-4.64,2.48-6.9,2.66
		c-2.26,0.19-4.43-0.2-6.44-1.16c-1.7-0.81-3.27-1.93-4.67-3.34l27.99-19.15l-0.43-0.87c-0.32-0.65-0.66-1.28-1.02-1.9
		c-0.35-0.61-0.73-1.2-1.1-1.75c-2.31-3.38-5.1-5.86-8.28-7.37c-3.19-1.52-6.61-2.09-10.18-1.71c-3.54,0.38-7.02,1.73-10.35,4.01
		c-3.56,2.43-6.19,5.48-7.82,9.05c-1.63,3.57-2.3,7.31-1.97,11.14c0.33,3.83,1.64,7.44,3.89,10.73c2.53,3.7,5.59,6.5,9.09,8.32
		c3.53,1.84,7.3,2.62,11.23,2.33c3.92-0.29,7.8-1.74,11.55-4.3c4.22-2.89,7.15-6.46,8.69-10.62c1.13-3.05,1.44-6.2,1-9.37
		C171.7,78.85,163.66,80.72,163.66,80.72z M135.31,84.78c-0.53-1.61-0.73-3.24-0.61-4.86c0.15-2.06,0.76-4.02,1.79-5.82
		c1.04-1.8,2.49-3.35,4.33-4.61c2.2-1.5,4.36-2.37,6.43-2.59c2.06-0.22,3.98,0.04,5.69,0.79c1.39,0.6,2.56,1.46,3.57,2.6
		L135.31,84.78z"/>
	<path class="st1" d="M224.33,60.72v7.96h5.19v31.79c0,2.28,1.85,4.13,4.13,4.13l0,0c2.28,0,4.13-1.85,4.13-4.13V60.72H224.33z"/>
	<path class="st2" d="M49.76,96.5c2.23,0,4.04,1.81,4.04,4.04c0,2.23-1.81,4.04-4.04,4.04c-2.23,0-4.04-1.81-4.04-4.04
		C45.72,98.31,47.53,96.5,49.76,96.5z"/>
	<path class="st2" d="M73.52,76.87c2.23,0,4.04,1.81,4.04,4.04c0,2.23-1.81,4.04-4.04,4.04c-2.23,0-4.04-1.81-4.04-4.04
		C69.48,78.68,71.29,76.87,73.52,76.87z"/>
	<path class="st2" d="M165.5,77.52c1.9-1.27,4.48-0.78,5.77,1.11c1.29,1.88,0.8,4.44-1.1,5.71c-1.9,1.27-4.48,0.77-5.77-1.11
		C163.11,81.35,163.6,78.8,165.5,77.52z"/>
	<path class="st1" d="M198.3,80.43l11.54-11.76h6.09v-7.95h-9.43l-16.03,16.33h-3.3V50.11c0-2.28-1.85-4.13-4.13-4.13l0,0
		c-2.28,0-4.13,1.85-4.13,4.13v54.54h8.26V85.01h3.05l16.3,18.1l1.33-1.32l2.25-1.75l2.59-2.32L198.3,81.59V80.43z"/>
	<path class="st2" d="M213.71,100.13c2.33,0,4.23,1.89,4.23,4.23c0,2.34-1.89,4.23-4.23,4.23c-2.34,0-4.23-1.89-4.23-4.23
		C209.48,102.03,211.37,100.13,213.71,100.13z"/>
	<path class="st3" d="M234.01,39.85c-3.52,0-6.38,2.86-6.38,6.38c0,3.52,4.17,7.82,6.38,10.02c2.19-2.19,6.38-6.5,6.38-10.02
		C240.39,42.7,237.53,39.85,234.01,39.85z M233.96,49.08c-1.77,0-3.2-1.43-3.2-3.18c0-1.76,1.43-3.19,3.2-3.19
		c1.75,0,3.17,1.43,3.17,3.19C237.13,47.66,235.71,49.08,233.96,49.08z"/>
</g>
</svg>
